# xmcd
#
# Track frame offsets: 
#        150
#        16302
#        27952
#        38747
#        50815
#        69047
#        86055
#        96660
#        109272
#        123897
#        134752
#        148585
#        159367
#
# Disc length: 2304 seconds
#
# Revision: 0
# Processed by: cddbd v1.4PL0 Copyright (c) Steve Scherf et al.
# Submitted via: ExactAudioCopy v0.90b4
#
DISCID=b308fe0d
DTITLE=Osborne Bros - Hyden
DYEAR=1998
DGENRE=Bluegrass
TTITLE0=Ruby (Are You Mad)
TTITLE1=Hero of the Creek
TTITLE2=I'll Just Pretend
TTITLE3=Leaning on the Everlasting Arms
TTITLE4=A Child Again
TTITLE5=Picture on the Wall
TTITLE6=The Older He Got, the Better He Was
TTITLE7=Grandpaw's Radio
TTITLE8=The Great Speckled Bird
TTITLE9=Savior Save Me from Myself
TTITLE10=Little Cabin Home on the Hill
TTITLE11=There's a Star Spangled Banner Waving
TTITLE12=Old Friend of Mine
EXTD=
EXTT0=
EXTT1=
EXTT2=
EXTT3=
EXTT4=
EXTT5=
EXTT6=
EXTT7=
EXTT8=
EXTT9=
EXTT10=
EXTT11=
EXTT12=
PLAYORDER=
